<svg width="33" height="33" viewBox="0 0 33 33" fill="none" xmlns="http://www.w3.org/2000/svg">
<path d="M7.68953 1.08203C7.97632 1.42868 8.9596 3.7469 9.88142 6.23843C13.2819 15.3596 15.4328 21.166 15.8221 22.3143L16.2318 23.4842L16.6005 22.4226C17.2765 20.451 22.8894 5.5668 23.8112 3.27025C24.8969 0.583726 25.1427 0.237081 26.0441 0.237081C26.8635 0.237081 27.0478 0.497064 26.6586 1.14703C26.3308 1.71033 24.4053 7.75502 21.6398 16.9195C19.8371 22.8342 17.6862 29.3772 16.8668 31.4138C16.539 32.2371 16.4366 32.3454 16.1908 32.0638C16.0474 31.8904 15.5558 30.7855 15.1051 29.5939C14.2857 27.3623 14.0808 26.7557 9.51269 11.9365C8.03777 7.10506 6.60382 2.62029 6.31703 1.99199C6.05073 1.34202 5.88685 0.670389 5.94831 0.497064C6.11219 0.0204226 7.09547 0.367072 7.68953 1.08203Z" fill="black"/>
<path d="M32.3125 0.367071C32.3739 0.432068 31.2882 3.03194 29.8748 6.15177C28.4613 9.27161 27.0273 12.4564 26.6996 13.2364C25.3681 16.3129 20.1444 27.254 19.7552 27.7523L19.3455 28.2939L19.4684 27.7523C19.8576 26.2141 30.4483 1.38535 31.1038 0.497064C31.3087 0.237078 32.1076 0.12875 32.3125 0.367071Z" fill="black"/>
<path d="M1.66695 0.778716C1.99471 1.32035 3.20332 4.05021 8.44747 16.2696C12.9337 26.7124 13.8145 28.9223 13.1385 28.1856C12.4011 27.3623 0.314941 1.21203 0.314941 0.432069C0.314941 -0.0229069 1.33919 0.258743 1.66695 0.778716Z" fill="black"/>
</svg>
